<svg xmlns="http://www.w3.org/2000/svg" xmlns:xlink="http://www.w3.org/1999/xlink" width="2000" zoomAndPan="magnify" viewBox="0 0 1500 1499.999933" height="2000" preserveAspectRatio="xMidYMid meet" version="1.0"><defs><g/><clipPath id="05941a7a3d"><rect x="0" width="1500" y="0" height="342"/></clipPath></defs><g transform="matrix(1, 0, 0, 1, 0, 579)"><g clip-path="url(#05941a7a3d)"><g fill="#735044" fill-opacity="1"><g transform="translate(0.156974, 281.48588)"><g><path d="M 206.359375 -186.21875 L 206.359375 0 L 159.734375 0 L 159.734375 -99 L 137.28125 -57.5625 L 90.65625 -57.5625 L 62.453125 -110.234375 L 62.453125 0 L 15.828125 0 L 15.828125 -186.21875 L 68.21875 -186.21875 L 113.96875 -101.015625 L 159.734375 -186.21875 Z M 206.359375 -186.21875 "/></g></g></g><g fill="#735044" fill-opacity="1"><g transform="translate(222.300341, 281.48588)"><g><path d="M 18.703125 -186.21875 L 65.328125 -186.21875 L 65.328125 0 L 18.703125 0 Z M 18.703125 -186.21875 "/></g></g></g><g fill="#735044" fill-opacity="1"><g transform="translate(306.323516, 281.48588)"><g><path d="M 62.453125 -46.34375 L 139.296875 -46.34375 L 139.296875 0 L 15.828125 0 L 15.828125 -186.21875 L 62.453125 -186.21875 Z M 62.453125 -46.34375 "/></g></g></g><g fill="#735044" fill-opacity="1"><g transform="translate(452.788515, 281.48588)"><g><path d="M 15.828125 -186.21875 L 162.328125 -186.21875 L 162.328125 -139.875 L 62.453125 -139.875 L 62.453125 -116.28125 L 133.546875 -116.28125 L 133.546875 -69.9375 L 62.453125 -69.9375 L 62.453125 -46.34375 L 162.328125 -46.34375 L 162.328125 0 L 15.828125 0 Z M 15.828125 -186.21875 "/></g></g></g><g fill="#787436" fill-opacity="1"><g transform="translate(622.346492, 281.48588)"><g><path d="M 146.203125 -139.875 L 71.671875 -139.875 C 69.941406 -139.875 67.585938 -139.828125 64.609375 -139.734375 C 61.640625 -139.640625 58.953125 -138.773438 56.546875 -137.140625 C 54.148438 -135.515625 52.953125 -132.492188 52.953125 -128.078125 C 52.953125 -123.660156 54.148438 -120.632812 56.546875 -119 C 58.953125 -117.375 61.640625 -116.460938 64.609375 -116.265625 C 67.585938 -116.078125 69.941406 -115.984375 71.671875 -115.984375 L 89.21875 -115.984375 C 99.96875 -115.984375 110.140625 -114.015625 119.734375 -110.078125 C 129.328125 -106.148438 137.144531 -99.914062 143.1875 -91.375 C 149.226562 -82.84375 152.25 -71.765625 152.25 -58.140625 C 152.25 -44.515625 149.226562 -33.429688 143.1875 -24.890625 C 137.144531 -16.359375 129.328125 -10.078125 119.734375 -6.046875 C 110.140625 -2.015625 99.96875 0 89.21875 0 L 12.375 0 L 12.375 -46.34375 L 87.203125 -46.34375 C 89.117188 -46.34375 91.515625 -46.390625 94.390625 -46.484375 C 97.273438 -46.578125 99.914062 -47.4375 102.3125 -49.0625 C 104.71875 -50.695312 105.921875 -53.722656 105.921875 -58.140625 C 105.921875 -62.546875 104.71875 -65.566406 102.3125 -67.203125 C 99.914062 -68.835938 97.273438 -69.75 94.390625 -69.9375 C 91.515625 -70.125 89.117188 -70.21875 87.203125 -70.21875 L 69.65625 -70.21875 C 58.90625 -70.21875 48.734375 -72.1875 39.140625 -76.125 C 29.546875 -80.0625 21.726562 -86.296875 15.6875 -94.828125 C 9.644531 -103.367188 6.625 -114.453125 6.625 -128.078125 C 6.625 -141.703125 9.644531 -152.78125 15.6875 -161.3125 C 21.726562 -169.851562 29.546875 -176.140625 39.140625 -180.171875 C 48.734375 -184.203125 58.90625 -186.21875 69.65625 -186.21875 L 146.203125 -186.21875 Z M 146.203125 -139.875 "/></g></g></g><g fill="#735044" fill-opacity="1"><g transform="translate(782.34705, 281.48588)"><g><path d="M 10.078125 -186.21875 L 154.5625 -186.21875 L 154.5625 -139.875 L 105.625 -139.875 L 105.625 0 L 59 0 L 59 -139.875 L 10.078125 -139.875 Z M 10.078125 -186.21875 "/></g></g></g><g fill="#735044" fill-opacity="1"><g transform="translate(946.940332, 281.48588)"><g><path d="M 97 -186.21875 C 114.257812 -186.21875 129.316406 -182.332031 142.171875 -174.5625 C 155.035156 -166.789062 165.015625 -155.898438 172.109375 -141.890625 C 179.210938 -127.878906 182.765625 -111.570312 182.765625 -92.96875 C 182.765625 -74.351562 179.164062 -58.085938 171.96875 -44.171875 C 164.769531 -30.265625 154.742188 -19.425781 141.890625 -11.65625 C 129.035156 -3.882812 113.972656 0 96.703125 0 L 93.25 0 C 75.976562 0 60.914062 -3.882812 48.0625 -11.65625 C 35.207031 -19.425781 25.179688 -30.265625 17.984375 -44.171875 C 10.785156 -58.085938 7.1875 -74.351562 7.1875 -92.96875 C 7.1875 -111.570312 10.738281 -127.878906 17.84375 -141.890625 C 24.945312 -155.898438 34.925781 -166.789062 47.78125 -174.5625 C 60.632812 -182.332031 75.695312 -186.21875 92.96875 -186.21875 Z M 94.984375 -45.765625 C 107.453125 -45.765625 117.472656 -50.128906 125.046875 -58.859375 C 132.628906 -67.585938 136.421875 -78.957031 136.421875 -92.96875 C 136.421875 -107.164062 132.628906 -118.53125 125.046875 -127.0625 C 117.472656 -135.601562 107.453125 -139.875 94.984375 -139.875 C 82.703125 -139.875 72.722656 -135.601562 65.046875 -127.0625 C 57.367188 -118.53125 53.53125 -107.164062 53.53125 -92.96875 C 53.53125 -78.957031 57.367188 -67.585938 65.046875 -58.859375 C 72.722656 -50.128906 82.703125 -45.765625 94.984375 -45.765625 Z M 94.984375 -45.765625 "/></g></g></g><g fill="#735044" fill-opacity="1"><g transform="translate(1136.855631, 281.48588)"><g><path d="M 177.578125 -186.21875 L 177.578125 0 L 130.953125 0 L 62.453125 -112.25 L 62.453125 0 L 15.828125 0 L 15.828125 -186.21875 L 68.21875 -186.21875 L 130.953125 -82.3125 L 130.953125 -186.21875 Z M 177.578125 -186.21875 "/></g></g></g><g fill="#735044" fill-opacity="1"><g transform="translate(1330.223996, 281.48588)"><g><path d="M 15.828125 -186.21875 L 162.328125 -186.21875 L 162.328125 -139.875 L 62.453125 -139.875 L 62.453125 -116.28125 L 133.546875 -116.28125 L 133.546875 -69.9375 L 62.453125 -69.9375 L 62.453125 -46.34375 L 162.328125 -46.34375 L 162.328125 0 L 15.828125 0 Z M 15.828125 -186.21875 "/></g></g></g></g></g></svg>